%TF.GenerationSoftware,KiCad,Pcbnew,9.0.0*%
%TF.CreationDate,2025-04-29T10:42:49+05:30*%
%TF.ProjectId,Smart Water Heater Control,536d6172-7420-4576-9174-657220486561,rev?*%
%TF.SameCoordinates,Original*%
%TF.FileFunction,Soldermask,Top*%
%TF.FilePolarity,Negative*%
%FSLAX46Y46*%
G04 Gerber Fmt 4.6, Leading zero omitted, Abs format (unit mm)*
G04 Created by KiCad (PCBNEW 9.0.0) date 2025-04-29 10:42:49*
%MOMM*%
%LPD*%
G01*
G04 APERTURE LIST*
G04 Aperture macros list*
%AMRoundRect*
0 Rectangle with rounded corners*
0 $1 Rounding radius*
0 $2 $3 $4 $5 $6 $7 $8 $9 X,Y pos of 4 corners*
0 Add a 4 corners polygon primitive as box body*
4,1,4,$2,$3,$4,$5,$6,$7,$8,$9,$2,$3,0*
0 Add four circle primitives for the rounded corners*
1,1,$1+$1,$2,$3*
1,1,$1+$1,$4,$5*
1,1,$1+$1,$6,$7*
1,1,$1+$1,$8,$9*
0 Add four rect primitives between the rounded corners*
20,1,$1+$1,$2,$3,$4,$5,0*
20,1,$1+$1,$4,$5,$6,$7,0*
20,1,$1+$1,$6,$7,$8,$9,0*
20,1,$1+$1,$8,$9,$2,$3,0*%
G04 Aperture macros list end*
%ADD10R,1.500000X0.900000*%
%ADD11R,0.900000X1.500000*%
%ADD12R,4.100000X4.100000*%
%ADD13R,2.000000X3.000000*%
%ADD14O,2.000000X3.000000*%
%ADD15RoundRect,0.135000X-0.135000X-0.185000X0.135000X-0.185000X0.135000X0.185000X-0.135000X0.185000X0*%
%ADD16R,1.700000X2.000000*%
%ADD17O,1.700000X2.000000*%
%ADD18R,1.050000X1.500000*%
%ADD19O,1.050000X1.500000*%
%ADD20RoundRect,0.100000X-0.130000X-0.100000X0.130000X-0.100000X0.130000X0.100000X-0.130000X0.100000X0*%
%ADD21RoundRect,0.250000X-0.550000X-0.550000X0.550000X-0.550000X0.550000X0.550000X-0.550000X0.550000X0*%
%ADD22C,1.600000*%
G04 APERTURE END LIST*
D10*
%TO.C,U3*%
X93050000Y-105515000D03*
X93050000Y-107015000D03*
X93050000Y-108515000D03*
X93050000Y-110015000D03*
X93050000Y-111515000D03*
X93050000Y-113015000D03*
X93050000Y-114515000D03*
X93050000Y-116015000D03*
X93050000Y-117515000D03*
X93050000Y-119015000D03*
X93050000Y-120515000D03*
X93050000Y-122015000D03*
X93050000Y-123515000D03*
X93050000Y-125015000D03*
X93050000Y-126515000D03*
X93050000Y-128015000D03*
D11*
X94925000Y-128765000D03*
X96425000Y-128765000D03*
X97925000Y-128765000D03*
X99425000Y-128765000D03*
X100925000Y-128765000D03*
X102425000Y-128765000D03*
X103925000Y-128765000D03*
X105425000Y-128765000D03*
X106925000Y-128765000D03*
X108425000Y-128765000D03*
D10*
X110300000Y-128115000D03*
X110300000Y-126615000D03*
X110300000Y-125115000D03*
X110300000Y-123615000D03*
X110300000Y-122115000D03*
X110300000Y-120615000D03*
X110300000Y-119115000D03*
X110300000Y-117615000D03*
X110300000Y-116115000D03*
X110300000Y-114615000D03*
X110300000Y-113115000D03*
X110300000Y-111615000D03*
X110300000Y-110115000D03*
X110300000Y-108515000D03*
X110300000Y-107015000D03*
X110300000Y-105615000D03*
D12*
X100485000Y-113555000D03*
%TD*%
D13*
%TO.C,U4*%
X117865000Y-132760000D03*
D14*
X122945000Y-132760000D03*
X130565000Y-132760000D03*
X133105000Y-132760000D03*
%TD*%
D15*
%TO.C,R2*%
X133575000Y-138530000D03*
X134595000Y-138530000D03*
%TD*%
D16*
%TO.C,PS1*%
X81620000Y-139895000D03*
D17*
X81620000Y-144895000D03*
X110700000Y-134895000D03*
X110700000Y-149895000D03*
%TD*%
D18*
%TO.C,U1*%
X128105000Y-140790000D03*
D19*
X129375000Y-140790000D03*
X130645000Y-140790000D03*
%TD*%
D20*
%TO.C,R1*%
X133535000Y-140400000D03*
X134175000Y-140400000D03*
%TD*%
D21*
%TO.C,U2*%
X116925000Y-139580000D03*
D22*
X116925000Y-142120000D03*
X124545000Y-142120000D03*
X124545000Y-139580000D03*
%TD*%
M02*
