%TF.GenerationSoftware,KiCad,Pcbnew,9.0.0*%
%TF.CreationDate,2025-04-29T10:42:49+05:30*%
%TF.ProjectId,Smart Water Heater Control,536d6172-7420-4576-9174-657220486561,rev?*%
%TF.SameCoordinates,Original*%
%TF.FileFunction,Paste,Top*%
%TF.FilePolarity,Positive*%
%FSLAX46Y46*%
G04 Gerber Fmt 4.6, Leading zero omitted, Abs format (unit mm)*
G04 Created by KiCad (PCBNEW 9.0.0) date 2025-04-29 10:42:49*
%MOMM*%
%LPD*%
G01*
G04 APERTURE LIST*
G04 Aperture macros list*
%AMRoundRect*
0 Rectangle with rounded corners*
0 $1 Rounding radius*
0 $2 $3 $4 $5 $6 $7 $8 $9 X,Y pos of 4 corners*
0 Add a 4 corners polygon primitive as box body*
4,1,4,$2,$3,$4,$5,$6,$7,$8,$9,$2,$3,0*
0 Add four circle primitives for the rounded corners*
1,1,$1+$1,$2,$3*
1,1,$1+$1,$4,$5*
1,1,$1+$1,$6,$7*
1,1,$1+$1,$8,$9*
0 Add four rect primitives between the rounded corners*
20,1,$1+$1,$2,$3,$4,$5,0*
20,1,$1+$1,$4,$5,$6,$7,0*
20,1,$1+$1,$6,$7,$8,$9,0*
20,1,$1+$1,$8,$9,$2,$3,0*%
G04 Aperture macros list end*
%ADD10RoundRect,0.250000X-0.285000X-0.285000X0.285000X-0.285000X0.285000X0.285000X-0.285000X0.285000X0*%
%ADD11R,1.500000X0.900000*%
%ADD12R,0.900000X1.500000*%
%ADD13RoundRect,0.135000X-0.135000X-0.185000X0.135000X-0.185000X0.135000X0.185000X-0.135000X0.185000X0*%
%ADD14RoundRect,0.079500X-0.079500X-0.100500X0.079500X-0.100500X0.079500X0.100500X-0.079500X0.100500X0*%
G04 APERTURE END LIST*
D10*
%TO.C,U3*%
X99155000Y-112225000D03*
X99155000Y-113555000D03*
X99155000Y-114885000D03*
X100485000Y-112225000D03*
X100485000Y-113555000D03*
X100485000Y-114885000D03*
X101815000Y-112225000D03*
X101815000Y-113555000D03*
X101815000Y-114885000D03*
D11*
X93050000Y-105515000D03*
X93050000Y-107015000D03*
X93050000Y-108515000D03*
X93050000Y-110015000D03*
X93050000Y-111515000D03*
X93050000Y-113015000D03*
X93050000Y-114515000D03*
X93050000Y-116015000D03*
X93050000Y-117515000D03*
X93050000Y-119015000D03*
X93050000Y-120515000D03*
X93050000Y-122015000D03*
X93050000Y-123515000D03*
X93050000Y-125015000D03*
X93050000Y-126515000D03*
X93050000Y-128015000D03*
D12*
X94925000Y-128765000D03*
X96425000Y-128765000D03*
X97925000Y-128765000D03*
X99425000Y-128765000D03*
X100925000Y-128765000D03*
X102425000Y-128765000D03*
X103925000Y-128765000D03*
X105425000Y-128765000D03*
X106925000Y-128765000D03*
X108425000Y-128765000D03*
D11*
X110300000Y-128115000D03*
X110300000Y-126615000D03*
X110300000Y-125115000D03*
X110300000Y-123615000D03*
X110300000Y-122115000D03*
X110300000Y-120615000D03*
X110300000Y-119115000D03*
X110300000Y-117615000D03*
X110300000Y-116115000D03*
X110300000Y-114615000D03*
X110300000Y-113115000D03*
X110300000Y-111615000D03*
X110300000Y-110115000D03*
X110300000Y-108515000D03*
X110300000Y-107015000D03*
X110300000Y-105615000D03*
%TD*%
D13*
%TO.C,R2*%
X133575000Y-138530000D03*
X134595000Y-138530000D03*
%TD*%
D14*
%TO.C,R1*%
X133510000Y-140400000D03*
X134200000Y-140400000D03*
%TD*%
M02*
