M48
; DRILL file {KiCad 9.0.0} date 2025-04-29T10:43:09+0530
; FORMAT={-:-/ absolute / metric / decimal}
; #@! TF.CreationDate,2025-04-29T10:43:09+05:30
; #@! TF.GenerationSoftware,Kicad,Pcbnew,9.0.0
; #@! TF.FileFunction,Plated,1,2,PTH
FMAT,2
METRIC
; #@! TA.AperFunction,Plated,PTH,ViaDrill
T1C0.300
; #@! TA.AperFunction,Plated,PTH,ComponentDrill
T2C0.750
; #@! TA.AperFunction,Plated,PTH,ComponentDrill
T3C0.800
; #@! TA.AperFunction,Plated,PTH,ComponentDrill
T4C1.000
; #@! TA.AperFunction,Plated,PTH,ComponentDrill
T5C1.200
%
G90
G05
T1
X111.2Y-142.0
X127.6Y-129.0
X127.6Y-135.8
X129.6Y-151.0
X129.8Y-143.4
X132.2Y-148.2
X136.2Y-148.2
T2
X128.105Y-140.79
X129.375Y-140.79
X130.645Y-140.79
T3
X116.925Y-139.58
X116.925Y-142.12
X124.545Y-139.58
X124.545Y-142.12
T4
X81.62Y-139.895
X81.62Y-144.895
X110.7Y-134.895
X110.7Y-149.895
T5
X117.865Y-132.76
X122.945Y-132.76
X130.565Y-132.76
X133.105Y-132.76
M30
